<?xml version="1.0" encoding="UTF-8"?>
<svg id="Layer_1" xmlns="http://www.w3.org/2000/svg" version="1.1" viewBox="0 0 88.59 93.18">
  <!-- Generator: Adobe Illustrator 29.0.1, SVG Export Plug-In . SVG Version: 2.1.0 Build 192)  -->
  <defs>
    <style>
      .st0 {
        fill: #fff;
      }

      .st1 {
        fill: #231f20;
      }
    </style>
  </defs>
  <path class="st1" d="M20.04,9.97c.92.75.32,1.57.31,2.43-.11,6.61-.29,15.69,5.44,20.16,1.91,1.49,3.92,2.32,6.38,2.65.68.09,1.36.13,2.03.13,2.26,0,4.48-.43,6.75-.74.08.35-.11.43-.32.63-3.28,3.18-9.56,7.99-11.97,11.43-.19.28-.49.52-.44.89,3.39.06,6.74.72,10.09,1.06,1.5.15,3.04-.02,4.62.27.19.04.63.09.58.37-1.42.88-2.31,2.67-3.31,4.02-2.04,2.74-4.07,5.51-6.08,8.36-1.1,1.56-2.22,3.83-3.56,5.15-1.64,1.62-2.53,1.22-4.51,1.64-3.08.66-6.65,1.06-8.17,4.15-1.02,2.07-.97,2.99-.64,5.19.04.25.31.38,0,.38-.04,0-.1,0-.17,0-1.46-2.02-2.07-4.84-1.54-7.27.63-2.87,3.09-4.49,4.41-7.06,1.53-2.97,1.05-4.77,1.05-7.85,0-5.09.11-10.28.01-15.3-.03-1.75.28-3.51-.63-5.1-.95-1.67-3.52-1.79-5.15-2.28-1.46-.44-2.89-.96-4.35-1.38-.72-.2-2.61-.07-2.81-1.11h10.19c-.04-1.1.05-2.2,0-3.3-.12-3.39-.14-7.41.21-10.81.13-1.29.7-5.03,1.11-6.1.1-.26.27-.41.48-.58M25.77,44.79l6.69-6.58c-.28.04-.55.06-.81.06-2.09,0-3.94-1.11-5.98-1.55l.1,8.07M26.1,62.19l7.54-9.12.1-.65-7.76-1.07.12,10.83M19.95,2.15l-3.81,3.26,3.9,4.56-3.91-4.56c-.42.36-1.53,1.31-2.18,3-.86,2.25-1.47,7.57-1.47,7.63-.25,2.46-.35,5.33-.31,8.73h-4.13s-7.3,0-7.3,0l1.42,7.17c.38,1.89,1.82,5.16,7.28,5.79.02,0,.04,0,.06,0,.62.18,1.26.39,1.93.62.68.23,1.37.45,2.05.66.53.16,1.05.28,1.53.38-.01.45-.02.91-.01,1.36.06,3.3.04,6.78.01,10.14-.01,1.68-.02,3.37-.03,5.04,0,.74.02,1.39.04,1.97.06,1.86.06,2.2-.43,3.14-.25.48-.74,1.09-1.27,1.74-1.26,1.55-2.98,3.67-3.66,6.78-.89,4.05.08,8.67,2.54,12.07l1.62,2.25,2.76.22c.27.02.48.03.65.03,2.29,0,4.31-1.17,5.39-3.13.84-1.51.98-3.24.44-4.84-.02-.17-.04-.33-.05-.44.03-.07.08-.2.18-.41.53-.31,2.1-.63,3.06-.83.35-.07.69-.14,1.03-.21.26-.06.52-.09.85-.13,1.92-.23,4.18-.68,6.63-3.12,1.39-1.37,2.4-3.02,3.3-4.48.34-.56.67-1.09.94-1.47,1.79-2.54,3.7-5.16,5.99-8.24.36-.49.69-.97.97-1.4.26-.39.64-.96.85-1.2l2.08-1.29.49-2.58c.31-1.65-.04-3.31-.99-4.69-.69-1-2.02-2.29-4.41-2.7-.97-.18-1.88-.24-2.69-.27,1.25-1.09,2.43-2.13,3.43-3.1,2.63-2.35,2.32-5.21,2.07-6.34l-1.22-5.36-5.44.74c-.55.07-1.09.16-1.63.24-1.55.23-3.01.45-4.31.45-.45,0-.85-.03-1.24-.08-1.41-.19-2.42-.6-3.48-1.43-3.3-2.57-3.22-9.71-3.14-15.01.78-3.87-.93-6.21-2.51-7.5l-3.88-3.17h0Z"/>
  <g>
    <path class="st1" d="M50.5,12.76c.1,0,.21,0,.32.02l-2.9,2.41c-4.78,5.79-1.06,15.74,6.39,15.74.54,0,1.09-.05,1.66-.16l3.13-1.65-4.46,7.22,18.47,1.17c-1.8,1.43-3.87,2.47-5.79,3.72-.14.09-.17.32-.31.42-3.72,2.43-7.77,4.68-11.4,7.45-.84,2.31-1.62,4.67-2.31,7.03-2.58,8.72-4.63,17.6-6.14,26.55-.03.18-.35,1.15-.59,1.22-.29-1.79.3-3.52.42-5.2.47-6.49.57-13.04,1.07-19.52.34-4.52,1.35-8.99,1.45-13.54-.96-1.7-2.16-2.25-3.46-2.25-2.11,0-4.5,1.45-6.67,1.81-.1.02-.18.02-.24.02-.74,0,.51-.97.64-1.16.4-.58.8-1.53,1.21-2.13.61-.91,3.54-4.53,3.68-5.25.15-.78.1-3.78-.01-4.65-.23-1.84-1.49-3.97-1.68-5.97-.42-4.44.72-7.86,3.92-10.94.45-.44,2.44-2.04,2.88-2.21.25-.09.48-.13.73-.13M53.58,45.04l8.49-5.09-8.28-.43-.21,5.52M50.5,6.76c-.99,0-1.95.18-2.87.53-1.95.74-4.88,3.47-4.9,3.49-4.46,4.29-6.33,9.47-5.73,15.83.17,1.81.75,3.4,1.21,4.68.18.49.44,1.22.49,1.48.03.34.06,1.31.06,2.09-.47.66-1.13,1.52-1.5,2.01-.61.81-.97,1.29-1.24,1.68-.39.57-.69,1.16-.94,1.63-.03.05-.06.12-.09.18-2.69,2.86-2.19,5.57-1.63,6.98.94,2.34,3.21,3.86,5.8,3.86.4,0,.8-.03,1.22-.1.99-.16,1.9-.43,2.74-.71-.1.75-.2,1.51-.31,2.28-.27,1.95-.55,3.97-.71,6.05-.26,3.43-.42,6.88-.57,10.22-.14,3.07-.28,6.25-.5,9.32-.02.3-.09.73-.17,1.19-.23,1.37-.54,3.25-.19,5.4l1.06,6.59,6.44-1.75c3.9-1.06,4.79-5.19,4.93-6.01,1.46-8.68,3.47-17.38,5.98-25.85.5-1.68,1.03-3.35,1.6-4.98,1.81-1.28,3.74-2.48,5.76-3.73,1.27-.79,2.59-1.61,3.88-2.45.44-.29.8-.6,1.1-.91.35-.22.72-.43,1.1-.66,1.35-.8,2.88-1.72,4.35-2.89l12.21-9.7-15.56-.98-8.49-.54,10.75-17.4-19.45,10.24-2.11,1.11c-1.02-.06-1.63-.91-1.96-1.62-.53-1.13-.68-2.74.08-3.96l2.35-1.95,10.89-9.05-14.08-1.52c-.33-.04-.65-.05-.97-.05h0Z"/>
    <path class="st0" d="M50.82,12.77l-2.9,2.41c-5.13,6.21-.49,17.19,8.05,15.58l3.13-1.65-4.46,7.22,18.47,1.17c-1.8,1.43-3.87,2.47-5.79,3.72-.14.09-.17.32-.31.42-3.72,2.43-7.77,4.68-11.4,7.45-.84,2.31-1.62,4.67-2.31,7.03-2.58,8.72-4.63,17.6-6.14,26.55-.03.18-.35,1.15-.59,1.22-.29-1.79.3-3.52.42-5.2.47-6.49.57-13.04,1.07-19.52.34-4.52,1.35-8.99,1.45-13.54-2.53-4.45-6.63-1.02-10.13-.44-1.21.2.26-.93.4-1.14.4-.58.8-1.53,1.21-2.13.61-.91,3.54-4.53,3.68-5.25.15-.78.1-3.78-.01-4.65-.23-1.84-1.49-3.97-1.68-5.97-.42-4.44.72-7.86,3.92-10.94.45-.44,2.44-2.04,2.88-2.21.35-.14.68-.15,1.05-.11ZM62.07,39.95l-8.28-.43-.21,5.52,8.49-5.09Z"/>
  </g>
  <path class="st0" d="M26.14,32.56c1.91,1.49,3.92,2.32,6.38,2.65,2.97.4,5.83-.21,8.78-.61.08.35-.11.43-.32.63-3.28,3.18-9.56,7.99-11.97,11.43-.19.28-.49.52-.44.89,3.39.06,6.74.72,10.09,1.06,1.5.15,3.04-.02,4.62.27.19.04.63.09.58.37-1.42.88-2.31,2.67-3.31,4.02-2.04,2.74-4.07,5.51-6.08,8.36-1.1,1.56-2.22,3.83-3.56,5.15-1.64,1.62-2.53,1.22-4.51,1.64-3.08.66-6.65,1.06-8.17,4.15-1.02,2.07-.97,2.99-.64,5.19.04.28.4.42-.16.38-1.46-2.02-2.07-4.84-1.54-7.27.63-2.87,3.09-4.49,4.41-7.06,1.53-2.97,1.05-4.77,1.05-7.85,0-5.09.11-10.28.01-15.3-.03-1.75.28-3.51-.63-5.1-.95-1.67-3.52-1.79-5.15-2.28-1.46-.44-2.89-.96-4.35-1.38-.72-.2-2.61-.07-2.81-1.11h10.19c-.04-1.1.05-2.2,0-3.3-.12-3.39-.14-7.41.21-10.81.13-1.29.7-5.03,1.11-6.1.1-.26.27-.41.48-.58.92.75.32,1.57.31,2.43-.11,6.61-.29,15.69,5.44,20.16ZM32.81,38.2c-2.43.35-4.49-1-6.79-1.49l.1,8.07,6.69-6.58ZM34.08,52.43l-7.76-1.07.12,10.83,7.54-9.12.1-.65Z"/>
</svg>